<svg id="icons" enable-background="new 0 0 64 64" height="512" viewBox="0 0 64 64" width="512" xmlns="http://www.w3.org/2000/svg"><g><g><path d="m8.996 58.998c-.553 0-1-.447-1-1v-53.001c0-.553.447-1 1-1s1 .447 1 1v53.001c0 .553-.447 1-1 1z"/></g><g><path d="m45.006 58.998c-.553 0-1-.447-1-1v-53.001c0-.553.447-1 1-1s1 .447 1 1v53.001c0 .553-.447 1-1 1z"/></g><g><path d="m40.011 46.023h-2.998c-.553 0-1-.447-1-1s.447-1 1-1h2.998c.553 0 1 .447 1 1s-.448 1-1 1z"/></g><g><path d="m18.996 46.023h-5c-.553 0-1-.447-1-1s.447-1 1-1h5c.553 0 1 .447 1 1s-.447 1-1 1z"/></g><g><path d="m40.011 42.02h-2.998c-.553 0-1-.447-1-1s.447-1 1-1h2.998c.553 0 1 .447 1 1s-.448 1-1 1z"/></g><g><path d="m24.001 42.02h-10.005c-.553 0-1-.447-1-1s.447-1 1-1h10.005c.553 0 1 .447 1 1s-.447 1-1 1z"/></g><g><path d="m40.011 50.023h-2.998c-.553 0-1-.447-1-1s.447-1 1-1h2.998c.553 0 1 .447 1 1s-.448 1-1 1z"/></g><g><path d="m25.003 50.023h-11.007c-.553 0-1-.447-1-1s.447-1 1-1h11.007c.553 0 1 .447 1 1s-.447 1-1 1z"/></g><g><path d="m40.006 37.991h-26.01c-.553 0-1-.447-1-1s.447-1 1-1h26.01c.553 0 1 .447 1 1s-.447 1-1 1z"/></g><g><path d="m40.011 54.009h-2.998c-.553 0-1-.447-1-1s.447-1 1-1h2.998c.553 0 1 .447 1 1s-.448 1-1 1z"/></g><g><path d="m16.994 54.009h-2.998c-.553 0-1-.447-1-1s.447-1 1-1h2.998c.553 0 1 .447 1 1s-.447 1-1 1z"/></g><g><path d="m46.008 58.998h-38.014c-.553 0-1-.447-1-1s.447-1 1-1h38.014c.553 0 1 .447 1 1s-.447 1-1 1z"/></g><g><path d="m52.998 5.997c-.553 0-1-.447-1-1 0-1.652-1.343-2.996-2.994-2.996-1.653 0-2.998 1.344-2.998 2.996 0 .553-.447 1-1 1s-1-.447-1-1c0-2.755 2.242-4.996 4.998-4.996 2.754 0 4.994 2.241 4.994 4.996 0 .553-.447 1-1 1z"/></g><g><path d="m57.006 23.997c-2.755 0-4.996-2.241-4.996-4.996 0-.553.447-1 1-1s1 .447 1 1c0 1.652 1.344 2.996 2.996 2.996s2.996-1.344 2.996-2.996c0-.553.447-1 1-1s1 .447 1 1c0 2.755-2.241 4.996-4.996 4.996z"/></g><g><path d="m9 5.997c-.553 0-1-.447-1-1 0-2.755 2.241-4.996 4.996-4.996.553 0 1 .447 1 1s-.447 1-1 1c-1.652 0-2.996 1.344-2.996 2.996 0 .553-.447 1-1 1z"/></g><g><path d="m49.004 2.001h-36.008c-.553 0-1-.447-1-1s.447-1 1-1h36.008c.553 0 1 .447 1 1s-.447 1-1 1z"/></g><g><path d="m52.998 20.001c-.553 0-1-.447-1-1v-14.004c0-.553.447-1 1-1s1 .447 1 1v14.004c0 .553-.447 1-1 1z"/></g><g><path d="m57.006 23.997h-12.006c-.553 0-1-.447-1-1s.447-1 1-1h12.006c.553 0 1 .447 1 1s-.447 1-1 1z"/></g><g><path d="m61.002 20.001c-.553 0-1-.447-1-1v-5.002c0-.553.447-1 1-1s1 .447 1 1v5.002c0 .553-.447 1-1 1z"/></g><g><path d="m49.002 63.999h-44.004c-1.654 0-3-1.346-3-3v-6.005c0-1.654 1.346-3 3-3h3.998c.553 0 1 .447 1 1s-.447 1-1 1h-3.998c-.552 0-1 .448-1 1v6.005c0 .552.448 1 1 1h44.004c.552 0 1-.448 1-1v-6.005c0-.552-.447-1-.996-1h-3.998c-.553 0-1-.447-1-1s.447-1 1-1h3.998c1.652 0 2.996 1.346 2.996 3v6.005c0 1.654-1.346 3-3 3z"/></g><g><path d="m61.002 14.999c-.256 0-.512-.098-.707-.293l-2-2c-.391-.391-.391-1.023 0-1.414s1.023-.391 1.414 0l2 2c.391.391.391 1.023 0 1.414-.195.195-.451.293-.707.293z"/></g><g><path d="m57.006 14.996c-.256 0-.512-.098-.707-.293-.391-.391-.391-1.023 0-1.414l1.996-1.997c.391-.391 1.023-.391 1.414 0s.391 1.023 0 1.414l-1.996 1.997c-.195.195-.451.293-.707.293z"/></g><g><path d="m56.998 14.999c-.256 0-.512-.098-.707-.293l-2-2c-.391-.391-.391-1.023 0-1.414s1.023-.391 1.414 0l2 2c.391.391.391 1.023 0 1.414-.195.195-.451.293-.707.293z"/></g><g><path d="m53 14.996c-.256 0-.512-.098-.707-.293-.391-.391-.391-1.023 0-1.414l1.998-1.997c.391-.391 1.023-.391 1.414 0s.391 1.023 0 1.414l-1.998 1.997c-.195.195-.451.293-.707.293z"/></g><g><g><g><path d="m31.247 23.815c-.535 0-1.037-.207-1.414-.584l-7.07-7.07c-.778-.782-.778-2.051 0-2.828l3.535-3.536c.754-.754 2.074-.753 2.828-.001l7.071 7.072c.377.375.585.877.585 1.412 0 .536-.207 1.039-.585 1.416l-3.536 3.535c-.377.377-.879.584-1.414.584zm-3.534-12.604-3.536 3.536 7.07 7.07v-.002h.003l3.533-3.533z"/></g><g><path d="m22.056 27.768c-.256 0-.512-.098-.707-.293l-2.83-2.828c-.188-.188-.293-.441-.293-.707s.105-.52.293-.707l6.365-6.364c.391-.391 1.023-.391 1.414 0l2.828 2.828c.391.391.391 1.023 0 1.414l-6.363 6.364c-.196.195-.451.293-.707.293zm-1.416-3.829 1.416 1.414 4.949-4.95-1.414-1.414z"/></g><g><path d="m24.883 17.868c-.256 0-.512-.098-.707-.293-.391-.391-.391-1.023 0-1.414l4.95-4.95c.391-.391 1.023-.391 1.414 0s.391 1.023 0 1.414l-4.95 4.95c-.195.196-.451.293-.707.293z"/></g><g><path d="m29.126 22.111c-.256 0-.512-.098-.707-.293-.391-.391-.391-1.023 0-1.414l4.95-4.95c.391-.391 1.023-.391 1.414 0s.391 1.023 0 1.414l-4.95 4.95c-.195.196-.451.293-.707.293z"/></g></g><g><path d="m27.005 32.991c-3.741 0-7.257-1.457-9.9-4.101-5.459-5.459-5.459-14.342 0-19.801 2.644-2.644 6.159-4.101 9.9-4.101 3.74 0 7.257 1.457 9.9 4.101 5.458 5.459 5.458 14.342 0 19.801-2.643 2.644-6.16 4.101-9.9 4.101zm0-26.002c-3.207 0-6.221 1.248-8.486 3.515-4.68 4.68-4.68 12.293 0 16.973 2.266 2.267 5.279 3.515 8.486 3.515 3.206 0 6.22-1.249 8.486-3.515 4.679-4.68 4.679-12.293 0-16.973-2.266-2.266-5.28-3.515-8.486-3.515z"/></g></g></g></svg>